<svg xmlns="http://www.w3.org/2000/svg" width="154.964" height="149.627" viewBox="0 0 154.964 149.627">
  <path id="shopping-cart" d="M61.964,129.694a16.338,16.338,0,0,1,12.322,5.589h35.953a16.378,16.378,0,1,1-4.056,10.789c0-.262.007-.521.019-.78H78.323c.012.258.019.518.019.78a16.378,16.378,0,1,1-32.756,0q0-.4.02-.8A18.705,18.705,0,0,1,40.4,108.915l-19.071-79a.707.707,0,0,0-.741-.569H9.154a5,5,0,0,1,0-10.009H20.586A10.683,10.683,0,0,1,31.022,27.57l4.847,20.078H57.49A39.18,39.18,0,0,0,57.9,52.57H37.058l3.8,15.738H63.944a39.126,39.126,0,0,0,8.008,8.8V89.169H93.941v-3.5c.814.051,1.634.08,2.461.08s1.647-.029,2.461-.08v3.5h21.989V77.107a39.147,39.147,0,0,0,8.008-8.8h21.463l3.722-12.068a3.366,3.366,0,0,0,.145-.992,2.6,2.6,0,0,0-1.7-2.576,2.56,2.56,0,0,0-.754-.1H134.9a39.122,39.122,0,0,0,.413-4.922h16.425a7.37,7.37,0,0,1,7.373,7.6,8.262,8.262,0,0,1-.376,2.434l-13.076,42.393a21.219,21.219,0,0,1-20.394,15.079H83.491a4.932,4.932,0,0,1-4.414,2.748H46.49a8.691,8.691,0,0,0,0,17.382h3.152a16.34,16.34,0,0,1,12.322-5.589ZM96.4,12.823a34,34,0,1,0,34,34A34,34,0,0,0,96.4,12.823ZM90.563,36.28a5.839,5.839,0,1,1,10.777,3.125,5.888,5.888,0,0,1-2.456,2.173A11.121,11.121,0,0,0,92.41,51.769v1.971a3.992,3.992,0,0,0,7.984,0V51.769a3.163,3.163,0,0,1,1.889-2.987,13.819,13.819,0,1,0-19.7-12.5,3.992,3.992,0,0,0,7.984,0ZM96.4,63.206a3.992,3.992,0,1,0,3.992,3.992A3.992,3.992,0,0,0,96.4,63.206ZM42.045,73.23l3.848,15.939H67.03V73.23Zm5.036,20.861,3.332,13.8H67.03v-13.8Zm24.871,13.8h7.125a4.926,4.926,0,0,1,4.186,2.338H93.941V94.091H71.952v13.8Zm53.823-18.724H143.89l4.916-15.939H125.775V89.168Zm16.6,4.922h-16.6v16.133a16.263,16.263,0,0,0,15.2-11.591Zm-21.519,0H98.864v16.14h21.989ZM61.964,139.4a6.668,6.668,0,1,0,6.668,6.668A6.668,6.668,0,0,0,61.964,139.4Zm60.6,0a6.668,6.668,0,1,0,6.668,6.668A6.668,6.668,0,0,0,122.561,139.4Z" transform="translate(-4.15 -12.823)" fill-rule="evenodd" opacity="0.14"/>
</svg>