<svg xmlns="http://www.w3.org/2000/svg" width="22" height="19.306" viewBox="0 0 22 19.306">
  <path id="XMLID_25_" d="M14.213,33.517a.673.673,0,0,1-.193.933,2.632,2.632,0,0,0-.432.356.674.674,0,0,1-.962-.943,3.982,3.982,0,0,1,.654-.538A.674.674,0,0,1,14.213,33.517Zm5.858,7.971L13.388,48.3a3.335,3.335,0,0,1-4.776,0L1.93,41.488a6.825,6.825,0,0,1,0-9.511A6.537,6.537,0,0,1,11,31.69a6.537,6.537,0,0,1,9.07.286A6.825,6.825,0,0,1,20.07,41.488Zm-.962-8.568a5.191,5.191,0,0,0-7.445,0c-.05.051-.1.114-.159.17a.692.692,0,0,1-1.01,0c-.059-.061-.108-.118-.159-.17a5.192,5.192,0,0,0-7.445,0,5.472,5.472,0,0,0,0,7.625l6.683,6.811a1.987,1.987,0,0,0,2.852,0l6.683-6.811h0A5.472,5.472,0,0,0,19.108,32.92Zm-.962.943a3.883,3.883,0,0,0-1.4-.92.674.674,0,1,0-.478,1.259,2.545,2.545,0,0,1,.918.6,2.765,2.765,0,0,1,0,3.853l-2.364,2.409a.674.674,0,0,0,.962.943L18.146,39.6A4.118,4.118,0,0,0,18.146,33.863Z" transform="translate(0 -30)" fill="#9b9b9b"/>
</svg>