<svg id="Layer_2" data-name="Layer 2" xmlns="http://www.w3.org/2000/svg" width="22" height="21.997" viewBox="0 0 22 21.997">
  <path id="Path_7322" data-name="Path 7322" d="M12.274,23.252a10.992,10.992,0,0,1-5.58-1.514L3.231,22.892a1.279,1.279,0,0,1-1.617-1.619l1.153-3.462A11,11,0,1,1,14.5,23.029a11.312,11.312,0,0,1-2.228.223ZM6.724,20.178a1.273,1.273,0,0,1,.659.184,9.487,9.487,0,1,0-3.239-3.239,1.266,1.266,0,0,1,.118,1.057L3.232,21.274l3.095-1.032a1.251,1.251,0,0,1,.4-.064Z" transform="translate(-1.261 -1.255)" fill="#9b9b9b"/>
  <circle id="Ellipse_6" data-name="Ellipse 6" cx="1.306" cy="1.306" r="1.306" transform="translate(9.686 15.161)" fill="#9b9b9b"/>
  <path id="Path_7323" data-name="Path 7323" d="M13.148,17.66a.98.98,0,0,1-.98-.98v-.549a3.485,3.485,0,0,1,2.1-3.265,2.939,2.939,0,1,0-4.062-2.717.98.98,0,0,1-1.959,0,4.9,4.9,0,1,1,6.77,4.528,1.555,1.555,0,0,0-.892,1.454v.549A.98.98,0,0,1,13.148,17.66Z" transform="translate(-2.156 -2.056)" fill="#9b9b9b"/>
</svg>