<svg xmlns="http://www.w3.org/2000/svg" width="22" height="22" viewBox="0 0 22 22">
  <g id="review" transform="translate(0)">
    <g id="Group_15" data-name="Group 15" transform="translate(5.74 8.791)">
      <g id="Group_14" data-name="Group 14">
        <path id="Path_7324" data-name="Path 7324" d="M135.357,206.147a.5.5,0,1,0,.147.355A.506.506,0,0,0,135.357,206.147Z" transform="translate(-134.5 -206)" fill="#9b9b9b"/>
      </g>
    </g>
    <g id="Group_17" data-name="Group 17" transform="translate(0)">
      <g id="Group_16" data-name="Group 16">
        <path id="Path_7325" data-name="Path 7325" d="M20.714,0H3.612A1.291,1.291,0,0,0,2.323,1.289V8.422A1.291,1.291,0,0,0,3.612,9.711h.773a.43.43,0,0,0,0-.859H3.612a.43.43,0,0,1-.43-.43V1.289a.43.43,0,0,1,.43-.43h17.1a.43.43,0,0,1,.43.43V8.422a.43.43,0,0,1-.43.43H17.84a.43.43,0,0,0-.3.126l-1.415,1.415L14.706,8.977a.43.43,0,0,0-.3-.126H11.051a2.522,2.522,0,0,0-.108-.24,2.445,2.445,0,0,0-1.475-1.23l-.621-.189a.43.43,0,0,0-.529.265l-.976,2.7a3.251,3.251,0,0,1-1.5,1.751l-.916.5a1.225,1.225,0,0,0-.947-.448H1.23A1.228,1.228,0,0,0,0,13.184v7.589A1.228,1.228,0,0,0,1.23,22H3.975A1.226,1.226,0,0,0,5,21.447l.438.172A5.5,5.5,0,0,0,7.453,22h5.8a1.576,1.576,0,0,0,1.364-2.368,1.577,1.577,0,0,0,.882-2.314,1.577,1.577,0,0,0-.077-3,1.576,1.576,0,0,0-1.369-2.361H10.606l.482-1.431a2.469,2.469,0,0,0,.13-.816h3.007L15.817,11.3a.43.43,0,0,0,.608,0l1.593-1.593h2.7A1.291,1.291,0,0,0,22,8.422V1.289A1.291,1.291,0,0,0,20.714,0ZM4.343,20.773a.368.368,0,0,1-.368.368H1.23a.368.368,0,0,1-.367-.368V13.184a.368.368,0,0,1,.367-.368h.943v5.29a.43.43,0,1,0,.859,0v-5.29h.943a.368.368,0,0,1,.347.247.421.421,0,0,0,.016.062.368.368,0,0,1,.005.058v7.589Zm9.709-7.957h0a.718.718,0,0,1,0,1.436H11.721a.43.43,0,1,0,0,.859h3.252a.718.718,0,0,1,0,1.436H11.721a.43.43,0,1,0,0,.859h2.423a.718.718,0,1,1,0,1.436H11.721a.43.43,0,0,0,0,.859h1.531a.718.718,0,0,1,0,1.436h-5.8a4.642,4.642,0,0,1-1.7-.322L5.2,20.6V13.231l1.048-.57a4.109,4.109,0,0,0,1.9-2.213l.837-2.314.231.07a1.605,1.605,0,0,1,1.054,2.048l-.673,2a.43.43,0,0,0,.407.567Z" transform="translate(-0.003)" fill="#9b9b9b"/>
      </g>
    </g>
    <g id="Group_19" data-name="Group 19" transform="translate(14.357 2.943)">
      <g id="Group_18" data-name="Group 18">
        <path id="Path_7326" data-name="Path 7326" d="M365.116,60.543a.8.8,0,0,0-.648-.546l-.888-.129-.4-.8a.8.8,0,0,0-.719-.447h0a.8.8,0,0,0-.719.447l-.4.8L360.46,60a.8.8,0,0,0-.444,1.368l.643.626-.151.885a.8.8,0,0,0,1.164.845l.794-.418.794.417a.8.8,0,0,0,1.163-.846l-.152-.884.643-.627A.8.8,0,0,0,365.116,60.543Zm-1.622.8a.8.8,0,0,0-.23.71l.1.586-.526-.276a.8.8,0,0,0-.746,0l-.526.277.1-.586a.8.8,0,0,0-.231-.71l-.426-.415.588-.086a.8.8,0,0,0,.6-.439l.263-.533.263.533a.8.8,0,0,0,.6.439l.588.085Z" transform="translate(-359.773 -58.617)" fill="#9b9b9b"/>
      </g>
    </g>
    <g id="Group_21" data-name="Group 21" transform="translate(9.547 2.943)">
      <g id="Group_20" data-name="Group 20">
        <path id="Path_7327" data-name="Path 7327" d="M237.9,60.543a.8.8,0,0,0-.648-.546l-.888-.129-.4-.8a.8.8,0,0,0-.719-.447h0a.8.8,0,0,0-.719.447l-.4.8-.888.129a.8.8,0,0,0-.444,1.368l.643.626-.151.885a.8.8,0,0,0,1.164.845l.794-.418.794.417a.8.8,0,0,0,1.163-.846l-.152-.884.643-.627A.8.8,0,0,0,237.9,60.543Zm-1.622.8a.8.8,0,0,0-.23.71l.1.586-.526-.276a.8.8,0,0,0-.746,0l-.526.277.1-.586a.8.8,0,0,0-.231-.71l-.426-.415.588-.086a.8.8,0,0,0,.6-.439l.263-.533.263.533a.8.8,0,0,0,.6.439l.588.085Z" transform="translate(-232.56 -58.617)" fill="#9b9b9b"/>
      </g>
    </g>
    <g id="Group_23" data-name="Group 23" transform="translate(4.325 2.943)">
      <g id="Group_22" data-name="Group 22">
        <path id="Path_7328" data-name="Path 7328" d="M110.69,60.543a.8.8,0,0,0-.648-.546l-.888-.129-.4-.8a.8.8,0,0,0-.719-.447h0a.8.8,0,0,0-.719.447l-.4.8-.888.129a.8.8,0,0,0-.444,1.368l.643.626-.151.885a.8.8,0,0,0,1.164.845l.794-.418.794.417A.8.8,0,0,0,110,62.876l-.152-.884.643-.627A.8.8,0,0,0,110.69,60.543Zm-1.622.8a.8.8,0,0,0-.23.71l.1.586-.526-.276a.8.8,0,0,0-.746,0l-.526.277.1-.586a.8.8,0,0,0-.231-.71l-.426-.415.588-.086a.8.8,0,0,0,.6-.439l.263-.533.263.533a.8.8,0,0,0,.6.439l.588.085Z" transform="translate(-105.347 -58.617)" fill="#9b9b9b"/>
      </g>
    </g>
    <g id="Group_25" data-name="Group 25" transform="translate(2.536 18.755)">
      <g id="Group_24" data-name="Group 24">
        <path id="Path_7329" data-name="Path 7329" d="M51.006,447.359a.5.5,0,0,0-.5.5v.008a.5.5,0,1,0,1,0v-.008A.5.5,0,0,0,51.006,447.359Z" transform="translate(-50.504 -447.359)" fill="#9b9b9b"/>
      </g>
    </g>
  </g>
</svg>
