<svg xmlns="http://www.w3.org/2000/svg" width="28.997" height="32.445" viewBox="0 0 28.997 32.445">
  <path id="logout" d="M41.47,27.277v1.617A3.462,3.462,0,0,1,39.7,31.958a3.461,3.461,0,0,1-3.538,0l-7.19-4.151A3.461,3.461,0,0,1,27.2,24.743V3.538A3.542,3.542,0,0,1,30.742,0H46.576a3.542,3.542,0,0,1,3.539,3.538v4.47a1.162,1.162,0,1,1-2.323,0V3.538a1.217,1.217,0,0,0-1.215-1.215H32.7l7,4.041A3.462,3.462,0,0,1,41.47,9.428V24.954h5.107a1.216,1.216,0,0,0,1.215-1.215V19.82a1.162,1.162,0,1,1,2.323,0v3.918a3.542,3.542,0,0,1-3.539,3.538ZM52.235,14.8,50.955,16.08A1.162,1.162,0,0,0,52.6,17.722l3.262-3.263a1.161,1.161,0,0,0,0-1.642L52.6,9.555A1.162,1.162,0,1,0,50.955,11.2l1.279,1.279H43.664a1.162,1.162,0,0,0,0,2.324h8.571Z" transform="translate(-27.204 0)" fill="#61c1b4" fill-rule="evenodd"/>
</svg>